<?xml version="1.0" encoding="utf-8"?>
<!-- Generator: Adobe Illustrator 16.0.0, SVG Export Plug-In . SVG Version: 6.00 Build 0)  -->
<!DOCTYPE svg PUBLIC "-//W3C//DTD SVG 1.1//EN" "http://www.w3.org/Graphics/SVG/1.1/DTD/svg11.dtd">
<svg version="1.1" id="Layer_1" xmlns="http://www.w3.org/2000/svg" xmlns:xlink="http://www.w3.org/1999/xlink" x="0px" y="0px"
	 width="55.91px" height="55.908px" viewBox="0 0 55.91 55.908" enable-background="new 0 0 55.91 55.908" xml:space="preserve">
<g>
	<path fill="#FFFFFF" d="M35.386,27.877c0-3.96-3.312-7.167-7.396-7.167c-4.083,0-7.395,3.207-7.395,7.167
		c0,3.955,3.312,7.164,7.395,7.164C32.074,35.041,35.386,31.832,35.386,27.877 M42.188,19.259v-3.966
		c0-0.913-0.746-1.661-1.658-1.661h-4.161c-0.913,0-1.658,0.748-1.658,1.661v3.966c0,0.913,0.745,1.659,1.658,1.659h4.161
		C41.442,20.918,42.188,20.172,42.188,19.259 M42.204,40.67V25.115h-3.24c0.309,1.004,0.474,2.061,0.474,3.163
		c0,6.123-5.125,11.088-11.447,11.088c-6.32,0-11.446-4.965-11.446-11.088c0-1.102,0.167-2.159,0.474-3.163h-3.381V40.67
		c0,0.805,0.658,1.461,1.463,1.461h25.643C41.547,42.131,42.204,41.475,42.204,40.67 M46.367,41.639
		c0,2.602-2.126,4.727-4.727,4.727H14.272c-2.602,0-4.729-2.125-4.729-4.727V14.271c0-2.6,2.128-4.727,4.729-4.727h27.368
		c2.601,0,4.727,2.127,4.727,4.727V41.639z M55.91,0H0v55.908h55.91V0z"/>
</g>
</svg>
