<?xml version="1.0" encoding="utf-8"?>
<!-- Generator: Adobe Illustrator 16.0.0, SVG Export Plug-In . SVG Version: 6.00 Build 0)  -->
<!DOCTYPE svg PUBLIC "-//W3C//DTD SVG 1.1//EN" "http://www.w3.org/Graphics/SVG/1.1/DTD/svg11.dtd">
<svg version="1.1" id="Layer_1" xmlns="http://www.w3.org/2000/svg" xmlns:xlink="http://www.w3.org/1999/xlink" x="0px" y="0px"
	 width="785px" height="101.204px" viewBox="612.883 611.961 785 101.204" enable-background="new 612.883 611.961 785 101.204"
	 xml:space="preserve">
<line fill="#CC3333" x1="1451.291" y1="713.165" x2="559.24" y2="713.165"/>
<g>
	<polygon fill="#CC3333" points="681.473,636.539 681.473,707.473 658.869,707.473 658.869,636.539 618.162,636.539 
		618.162,617.026 722.18,617.026 722.18,636.539 	"/>
	<polygon fill="#CC3333" points="834.84,707.475 834.84,670.254 769.465,670.254 769.465,707.475 746.723,707.475 746.723,617.026 
		769.465,617.026 769.465,650.739 834.84,650.739 834.84,617.026 857.582,617.026 857.582,707.475 	"/>
	<rect x="886.004" y="617.028" fill="#CC3333" width="22.748" height="90.447"/>
	<path fill="#CC3333" d="M1025.287,646.748c0-2.176-0.387-3.904-1.162-5.234c-0.773-1.338-1.725-2.377-2.838-3.113
		c-1.129-0.715-2.271-1.215-3.432-1.479c-1.154-0.248-2.088-0.383-2.775-0.383h-55.172v20.527h55.172
		c0.516,0,1.328-0.137,2.457-0.443c1.125-0.301,2.262-0.844,3.42-1.615c1.164-0.779,2.18-1.826,3.039-3.17
		C1024.856,650.51,1025.287,648.797,1025.287,646.748 M1048.024,646.748c0,3.953-0.518,7.439-1.545,10.453
		c-1.033,3.023-2.393,5.615-4.07,7.824c-1.682,2.195-3.574,4.023-5.684,5.488c-2.113,1.475-4.244,2.625-6.396,3.486l15.758,33.473
		h-24.293l-14.469-30.877h-47.416v30.877h-22.744v-90.447h81.273c2.404,0,5.322,0.426,8.721,1.287
		c3.398,0.873,6.654,2.395,9.762,4.586c3.094,2.201,5.721,5.211,7.875,9.037C1046.957,635.785,1048.024,640.705,1048.024,646.748"/>
	<g>
		<path fill="#CC3333" d="M1179.043,678.262c0,4.49-1.205,8.705-3.623,12.67c-2.408,3.957-6.115,7.422-11.109,10.395
			c-4.996,2.979-11.242,5.301-18.74,6.975c-7.484,1.688-16.355,2.525-26.607,2.525c-5.25,0-10.645-0.432-16.154-1.297
			c-4.734-0.693-9.947-1.766-15.631-3.221c-5.682-1.473-11.195-3.584-16.539-6.342l7.881-18.086
			c4.74,2.416,9.496,4.287,14.277,5.627c4.785,1.338,9.109,2.289,12.984,2.902c4.564,0.686,8.953,1.076,13.182,1.16
			c12.922,0,22.543-1.16,28.873-3.48c6.33-2.334,9.498-5.391,9.498-9.178c0-2.42-0.996-4.174-2.973-5.297
			c-1.982-1.121-5.041-1.764-9.174-1.936c-0.941-0.086-2.736-0.207-5.361-0.328c-2.635-0.139-5.836-0.279-9.621-0.457
			c-3.797-0.174-8.014-0.352-12.666-0.518c-4.648-0.176-9.479-0.379-14.477-0.643c-4.988-0.26-9.582-0.949-13.758-2.057
			c-4.18-1.133-7.799-2.758-10.848-4.863c-3.055-2.104-5.449-4.682-7.178-7.746c-1.723-3.051-2.578-6.656-2.578-10.775
			c0-4.145,1.355-8.043,4.062-11.697c2.721-3.666,6.592-6.861,11.637-9.566c5.035-2.707,11.148-4.838,18.342-6.393
			c7.191-1.557,15.23-2.336,24.104-2.336c5.25,0,10.598,0.408,16.021,1.172c4.646,0.684,9.832,1.672,15.562,2.973
			c5.73,1.297,11.309,3.18,16.734,5.688l-6.852,17.824c-2.662-1.109-5.68-2.195-9.047-3.232c-3.355-1.025-6.867-1.939-10.521-2.709
			c-3.67-0.783-7.367-1.381-11.113-1.807c-3.746-0.436-7.34-0.646-10.787-0.646c-5.176,0-9.977,0.236-14.404,0.699
			c-4.438,0.479-8.295,1.191-11.564,2.145c-3.271,0.947-5.84,2.115-7.689,3.488c-1.861,1.363-2.775,2.932-2.775,4.648
			c0,2.23,0.941,3.918,2.836,5.047c1.898,1.107,4.693,1.756,8.4,1.93c4.135,0.174,9.945,0.43,17.441,0.766
			c7.494,0.348,16.363,0.738,26.617,1.168c5.168,0.262,9.797,0.955,13.887,2.074c4.096,1.111,7.586,2.709,10.475,4.777
			c2.879,2.057,5.098,4.607,6.645,7.611C1178.264,670.94,1179.043,674.393,1179.043,678.262"/>
	</g>
	<polygon fill="#CC3333" points="1261.729,636.539 1261.729,707.473 1239.119,707.473 1239.119,636.539 1198.42,636.539 
		1198.42,617.026 1302.434,617.026 1302.434,636.539 	"/>
	<rect x="1326.979" y="617.028" fill="#CC3333" width="22.736" height="90.447"/>
	<polygon fill="#CC3333" points="1365.336,619.53 1365.336,617.026 1376.446,617.026 1376.446,619.53 1372.379,619.53 
		1372.379,630.578 1369.395,630.578 1369.395,619.53 	"/>
	<polygon fill="#CC3333" points="1382.199,617.026 1385.367,626.348 1385.405,626.348 1388.403,617.026 1392.604,617.026 
		1392.604,630.578 1389.809,630.578 1389.809,620.975 1389.768,620.975 1386.449,630.578 1384.153,630.578 1380.826,621.067 
		1380.787,621.067 1380.787,630.578 1378.002,630.578 1378.002,617.026 	"/>
</g>
</svg>
