<?xml version="1.0" encoding="utf-8"?>
<!-- Generator: Adobe Illustrator 19.0.0, SVG Export Plug-In . SVG Version: 6.00 Build 0)  -->
<svg version="1.1" id="Layer_1" xmlns="http://www.w3.org/2000/svg" xmlns:xlink="http://www.w3.org/1999/xlink" x="0px" y="0px"
	 viewBox="0 0 130.743 96.105" enable-background="new 0 0 130.743 96.105" xml:space="preserve">
<rect id="XMLID_38_" y="0" fill="#D13239" width="39.082" height="96.105"/>
<polygon id="XMLID_37_" fill="#FFFFFF" points="24.449,82.868 32.091,82.868 32.091,85.303 24.449,85.303 24.449,89.688 
	22.347,89.688 22.347,78.482 24.449,78.482 "/>
<polygon id="XMLID_36_" fill="#FFFFFF" points="32.091,66.345 28.082,66.345 28.082,73.388 32.091,73.388 32.091,75.838 
	22.347,75.838 22.347,73.388 25.979,73.388 25.979,66.345 22.347,66.345 22.347,63.895 32.091,63.895 "/>
<rect id="XMLID_35_" x="22.347" y="58.382" fill="#FFFFFF" width="9.744" height="2.451"/>
<path fill="#FFFFFF" d="M25.549,45.827c-0.234,0-0.421,0.042-0.564,0.125c-0.144,0.083-0.256,0.186-0.336,0.306
	c-0.077,0.122-0.131,0.245-0.159,0.37c-0.027,0.124-0.041,0.225-0.041,0.299v5.944h2.211v-5.944c0-0.056-0.015-0.143-0.048-0.265
	c-0.033-0.121-0.091-0.244-0.174-0.368c-0.084-0.125-0.197-0.235-0.341-0.327C25.954,45.873,25.77,45.827,25.549,45.827
	 M25.549,43.378c0.426,0,0.801,0.056,1.126,0.166c0.326,0.111,0.605,0.258,0.843,0.439c0.237,0.181,0.433,0.385,0.591,0.612
	c0.159,0.228,0.283,0.457,0.376,0.689l3.606-1.697v2.617l-3.326,1.559v5.108h3.326v2.45h-9.744v-8.756
	c0-0.259,0.046-0.573,0.139-0.939c0.094-0.366,0.258-0.717,0.494-1.052c0.237-0.333,0.561-0.616,0.973-0.848
	C24.368,43.492,24.898,43.378,25.549,43.378"/>
<path id="XMLID_32_" fill="#FFFFFF" d="M28.944,29.262c0.484,0,0.938,0.13,1.365,0.39c0.426,0.259,0.8,0.659,1.12,1.197
	c0.321,0.538,0.571,1.211,0.751,2.019c0.182,0.807,0.272,1.762,0.272,2.867c0,0.566-0.047,1.147-0.14,1.74
	c-0.075,0.51-0.19,1.072-0.347,1.684c-0.158,0.612-0.386,1.206-0.683,1.782l-1.948-0.849c0.26-0.511,0.462-1.023,0.606-1.538
	c0.144-0.516,0.247-0.981,0.313-1.399c0.074-0.492,0.116-0.965,0.125-1.42c0-1.392-0.125-2.429-0.375-3.111
	c-0.251-0.682-0.581-1.023-0.989-1.023c-0.261,0-0.449,0.107-0.57,0.32c-0.121,0.214-0.19,0.543-0.209,0.988
	c-0.009,0.101-0.022,0.295-0.035,0.578c-0.015,0.284-0.03,0.629-0.049,1.037c-0.019,0.409-0.038,0.863-0.056,1.364
	c-0.019,0.501-0.041,1.021-0.069,1.56c-0.028,0.537-0.102,1.032-0.221,1.482c-0.122,0.45-0.297,0.84-0.524,1.169
	c-0.227,0.329-0.504,0.587-0.835,0.773c-0.329,0.186-0.717,0.278-1.161,0.278c-0.446,0-0.866-0.146-1.26-0.438
	c-0.395-0.293-0.739-0.71-1.031-1.253c-0.292-0.543-0.521-1.201-0.689-1.976c-0.167-0.775-0.252-1.641-0.252-2.597
	c0-0.566,0.044-1.142,0.126-1.726c0.074-0.501,0.18-1.059,0.32-1.677c0.14-0.617,0.343-1.218,0.613-1.803l1.92,0.738
	c-0.12,0.287-0.237,0.612-0.348,0.975c-0.11,0.362-0.209,0.74-0.292,1.134c-0.084,0.395-0.149,0.794-0.194,1.197
	c-0.047,0.404-0.07,0.791-0.07,1.162c0,0.558,0.025,1.075,0.075,1.552c0.052,0.478,0.129,0.894,0.231,1.246
	c0.102,0.352,0.228,0.629,0.376,0.828c0.147,0.201,0.316,0.299,0.501,0.299c0.24,0,0.422-0.101,0.544-0.305
	c0.119-0.205,0.189-0.506,0.208-0.905c0.019-0.445,0.046-1.071,0.083-1.879c0.037-0.807,0.079-1.763,0.126-2.868
	c0.028-0.557,0.103-1.055,0.223-1.496c0.12-0.441,0.292-0.817,0.515-1.128c0.222-0.31,0.496-0.549,0.82-0.716
	C28.155,29.346,28.527,29.262,28.944,29.262"/>
<rect id="XMLID_31_" fill="none" width="39.082" height="96.105"/>
<polygon id="XMLID_30_" fill="#FFFFFF" points="24.449,20.354 32.091,20.354 32.091,22.79 24.449,22.79 24.449,27.175 
	22.347,27.175 22.347,15.969 24.449,15.969 "/>
<rect id="XMLID_29_" x="22.347" y="10.875" fill="#FFFFFF" width="9.744" height="2.449"/>
<polygon id="XMLID_28_" fill="#FFFFFF" points="22.773,9.192 22.347,9.192 22.347,7.302 22.773,7.302 22.773,7.994 24.652,7.994 
	24.652,8.501 22.773,8.501 "/>
<polygon id="XMLID_27_" fill="#FFFFFF" points="22.347,6.323 23.933,5.784 23.933,5.778 22.347,5.268 22.347,4.553 24.652,4.553 
	24.652,5.028 23.019,5.028 23.019,5.035 24.652,5.6 24.652,5.991 23.034,6.557 23.034,6.564 24.652,6.564 24.652,7.038 
	22.347,7.038 "/>
<g>
	<path fill="#FFFFFF" d="M57.269,41.85c0-0.726-0.288-1.326-0.866-1.8c-0.577-0.473-1.557-0.918-2.938-1.333
		c-1.511-0.415-2.66-0.933-3.449-1.552c-0.788-0.619-1.182-1.461-1.182-2.524c0-1.083,0.441-1.973,1.323-2.67
		c0.882-0.697,2.007-1.046,3.375-1.046c1.44,0,2.598,0.394,3.473,1.182c0.876,0.788,1.3,1.788,1.274,3.001l-0.019,0.058h-1.09
		c0-0.934-0.339-1.709-1.017-2.325c-0.678-0.616-1.551-0.924-2.622-0.924c-1.103,0-1.967,0.261-2.592,0.783
		c-0.626,0.522-0.939,1.163-0.939,1.921c0,0.72,0.283,1.312,0.851,1.776c0.568,0.464,1.568,0.897,3.001,1.298
		c1.492,0.435,2.63,0.97,3.415,1.605c0.785,0.636,1.177,1.479,1.177,2.529c0,1.102-0.459,1.989-1.376,2.661
		c-0.918,0.671-2.074,1.007-3.468,1.007c-1.394,0-2.61-0.355-3.648-1.065c-1.038-0.71-1.54-1.746-1.508-3.108l0.019-0.058h1.08
		c0,1.096,0.412,1.912,1.236,2.447c0.824,0.535,1.764,0.803,2.821,0.803c1.083,0,1.965-0.248,2.646-0.744
		C56.928,43.275,57.269,42.634,57.269,41.85z"/>
	<path fill="#FFFFFF" d="M68.195,45.293c-0.071-0.37-0.124-0.687-0.16-0.953c-0.036-0.266-0.053-0.538-0.053-0.817
		c-0.363,0.571-0.872,1.043-1.527,1.415c-0.655,0.373-1.407,0.56-2.257,0.56c-1.031,0-1.831-0.274-2.398-0.822
		c-0.568-0.548-0.851-1.292-0.851-2.233c0-0.94,0.412-1.703,1.236-2.286c0.823-0.583,1.893-0.875,3.21-0.875h2.588v-1.304
		c0-0.752-0.238-1.343-0.715-1.771c-0.477-0.428-1.149-0.642-2.018-0.642c-0.798,0-1.441,0.195-1.931,0.584
		c-0.49,0.389-0.735,0.879-0.735,1.469h-1.08l-0.019-0.058c-0.039-0.791,0.3-1.487,1.017-2.087c0.716-0.6,1.652-0.9,2.806-0.9
		c1.154,0,2.082,0.295,2.782,0.885c0.701,0.59,1.051,1.437,1.051,2.539v5.175c0,0.37,0.021,0.73,0.064,1.08
		c0.042,0.35,0.112,0.697,0.209,1.041H68.195z M64.324,44.466c0.895,0,1.67-0.212,2.325-0.637c0.655-0.425,1.099-0.971,1.333-1.639
		v-2.014h-2.598c-0.947,0-1.729,0.226-2.344,0.676c-0.617,0.451-0.924,0.994-0.924,1.629c0,0.597,0.196,1.077,0.589,1.44
		C63.096,44.285,63.636,44.466,64.324,44.466z"/>
	<path fill="#FFFFFF" d="M74.56,32.073v2.695h2.315v0.953H74.56v6.859c0,0.687,0.125,1.175,0.374,1.464
		c0.249,0.289,0.582,0.433,0.997,0.433c0.143,0,0.28-0.008,0.413-0.024c0.133-0.016,0.29-0.044,0.472-0.083l0.175,0.866
		c-0.156,0.078-0.349,0.141-0.579,0.19c-0.23,0.049-0.459,0.073-0.686,0.073c-0.739,0-1.315-0.234-1.727-0.701
		c-0.412-0.467-0.618-1.206-0.618-2.218v-6.859h-1.819v-0.953h1.819v-2.695H74.56z"/>
	<path fill="#FFFFFF" d="M80.953,31.752h-1.157v-1.634h1.157V31.752z M80.953,45.293h-1.157V34.767h1.157V45.293z"/>
	<path fill="#FFFFFF" d="M90.975,42.599c0-0.493-0.203-0.923-0.608-1.289c-0.405-0.366-1.137-0.667-2.194-0.9
		c-1.245-0.26-2.171-0.614-2.777-1.065c-0.607-0.451-0.91-1.081-0.91-1.892c0-0.804,0.339-1.485,1.016-2.043
		c0.678-0.558,1.575-0.837,2.69-0.837c1.174,0,2.111,0.297,2.812,0.89c0.701,0.593,1.034,1.325,1.002,2.194l-0.02,0.059h-1.08
		c0-0.577-0.248-1.08-0.744-1.508c-0.496-0.428-1.153-0.642-1.97-0.642c-0.843,0-1.479,0.185-1.907,0.555
		c-0.428,0.369-0.642,0.801-0.642,1.294c0,0.48,0.183,0.877,0.55,1.192c0.366,0.315,1.098,0.592,2.194,0.832
		c1.232,0.272,2.165,0.652,2.797,1.138c0.632,0.486,0.949,1.142,0.949,1.965c0,0.875-0.355,1.587-1.066,2.135
		c-0.71,0.548-1.649,0.822-2.816,0.822c-1.278,0-2.281-0.305-3.011-0.915c-0.73-0.609-1.075-1.336-1.036-2.179l0.019-0.058h1.07
		c0.045,0.758,0.355,1.31,0.929,1.653c0.574,0.344,1.25,0.516,2.028,0.516c0.843,0,1.508-0.188,1.994-0.564
		C90.732,43.575,90.975,43.124,90.975,42.599z"/>
	<path fill="#FFFFFF" d="M95.997,45.293v-9.572h-1.751v-0.953h1.751v-1.343c0-1.115,0.308-1.98,0.924-2.593
		c0.616-0.613,1.472-0.919,2.568-0.919c0.435,0,0.876,0.049,1.323,0.146c0.448,0.097,0.902,0.24,1.362,0.428l-0.195,1.002
		c-0.396-0.162-0.778-0.289-1.148-0.38c-0.37-0.091-0.792-0.136-1.265-0.136c-0.791,0-1.389,0.211-1.795,0.632
		c-0.405,0.422-0.608,1.028-0.608,1.819v1.343h2.462v0.953h-2.462v9.572H95.997z M102.807,45.293h-1.167V34.767h1.167V45.293z"/>
	<path fill="#FFFFFF" d="M110.514,45.498c-1.362,0-2.468-0.482-3.318-1.445c-0.85-0.963-1.274-2.2-1.274-3.711v-0.535
		c0-1.518,0.429-2.769,1.289-3.755c0.859-0.986,1.925-1.479,3.196-1.479c1.277,0,2.265,0.41,2.962,1.231
		c0.697,0.82,1.045,1.925,1.045,3.312v0.905h-7.325v0.321c0,1.2,0.303,2.195,0.909,2.987c0.606,0.791,1.445,1.187,2.515,1.187
		c0.642,0,1.232-0.105,1.77-0.316c0.538-0.211,0.986-0.495,1.343-0.851l0.496,0.798c-0.37,0.389-0.854,0.712-1.454,0.968
		C112.068,45.37,111.35,45.498,110.514,45.498z M110.407,35.565c-0.895,0-1.631,0.321-2.209,0.963
		c-0.577,0.643-0.914,1.456-1.012,2.442l0.03,0.058h6.031v-0.244c0-0.934-0.245-1.704-0.734-2.31
		C112.023,35.868,111.321,35.565,110.407,35.565z"/>
	<path fill="#FFFFFF" d="M123.571,42.599c0-0.493-0.203-0.923-0.608-1.289c-0.405-0.366-1.136-0.667-2.194-0.9
		c-1.245-0.26-2.171-0.614-2.777-1.065c-0.607-0.451-0.91-1.081-0.91-1.892c0-0.804,0.339-1.485,1.017-2.043
		c0.678-0.558,1.575-0.837,2.69-0.837c1.174,0,2.111,0.297,2.812,0.89c0.7,0.593,1.034,1.325,1.002,2.194l-0.019,0.059h-1.08
		c0-0.577-0.248-1.08-0.744-1.508c-0.496-0.428-1.153-0.642-1.97-0.642c-0.843,0-1.479,0.185-1.907,0.555
		c-0.428,0.369-0.642,0.801-0.642,1.294c0,0.48,0.183,0.877,0.55,1.192c0.366,0.315,1.098,0.592,2.194,0.832
		c1.232,0.272,2.165,0.652,2.797,1.138c0.633,0.486,0.949,1.142,0.949,1.965c0,0.875-0.355,1.587-1.066,2.135
		c-0.71,0.548-1.649,0.822-2.816,0.822c-1.278,0-2.282-0.305-3.011-0.915c-0.73-0.609-1.075-1.336-1.036-2.179l0.019-0.058h1.07
		c0.045,0.758,0.355,1.31,0.929,1.653c0.574,0.344,1.25,0.516,2.029,0.516c0.843,0,1.508-0.188,1.994-0.564
		C123.328,43.575,123.571,43.124,123.571,42.599z"/>
	<path fill="#FFFFFF" d="M50.03,53.436v2.053h1.764v0.726H50.03v5.225c0,0.524,0.095,0.896,0.285,1.116
		c0.19,0.22,0.443,0.33,0.76,0.33c0.109,0,0.214-0.006,0.315-0.019c0.101-0.012,0.221-0.034,0.359-0.063l0.134,0.66
		c-0.119,0.059-0.266,0.107-0.441,0.145c-0.176,0.037-0.35,0.056-0.523,0.056c-0.563,0-1.002-0.178-1.316-0.534
		c-0.314-0.356-0.471-0.919-0.471-1.69v-5.225h-1.386v-0.726h1.386v-2.053H50.03z"/>
	<path fill="#FFFFFF" d="M54.797,56.853c0.272-0.479,0.629-0.851,1.071-1.116c0.442-0.264,0.96-0.397,1.553-0.397
		c0.845,0,1.494,0.262,1.946,0.786c0.452,0.524,0.678,1.337,0.678,2.438v4.944h-0.889v-4.959c0-0.87-0.172-1.494-0.515-1.872
		s-0.817-0.567-1.419-0.567c-0.623,0-1.135,0.152-1.538,0.456c-0.403,0.304-0.698,0.71-0.886,1.219v5.722h-0.889V51.946h0.889
		V56.853z"/>
	<path fill="#FFFFFF" d="M63.73,53.192h-0.882v-1.245h0.882V53.192z M63.73,63.509h-0.882v-8.02h0.882V63.509z"/>
	<path fill="#FFFFFF" d="M70.224,56.253l-0.63-0.044c-0.558,0-1.017,0.157-1.375,0.471c-0.358,0.314-0.614,0.745-0.767,1.294v5.537
		h-0.889v-8.02h0.778l0.111,1.334v0.089c0.232-0.494,0.544-0.879,0.934-1.156c0.39-0.277,0.855-0.415,1.393-0.415
		c0.109,0,0.212,0.009,0.311,0.026c0.099,0.017,0.18,0.036,0.245,0.056L70.224,56.253z"/>
	<path fill="#FFFFFF" d="M76.926,61.456c0-0.376-0.154-0.703-0.463-0.982c-0.309-0.279-0.866-0.508-1.671-0.685
		c-0.949-0.198-1.654-0.468-2.116-0.812c-0.462-0.343-0.693-0.824-0.693-1.442c0-0.613,0.258-1.132,0.775-1.557
		c0.516-0.425,1.2-0.637,2.049-0.637c0.894,0,1.609,0.226,2.142,0.678c0.534,0.452,0.788,1.009,0.764,1.671l-0.015,0.045h-0.823
		c0-0.44-0.189-0.823-0.567-1.149c-0.378-0.326-0.879-0.489-1.501-0.489c-0.642,0-1.126,0.141-1.452,0.422
		c-0.326,0.282-0.489,0.61-0.489,0.986c0,0.366,0.14,0.668,0.419,0.908c0.279,0.24,0.837,0.451,1.671,0.634
		c0.939,0.207,1.649,0.497,2.131,0.867c0.482,0.371,0.723,0.87,0.723,1.497c0,0.667-0.271,1.209-0.812,1.627
		c-0.541,0.417-1.256,0.626-2.146,0.626c-0.973,0-1.738-0.232-2.294-0.697c-0.556-0.464-0.819-1.018-0.789-1.66l0.015-0.045h0.815
		c0.035,0.578,0.271,0.998,0.708,1.26c0.437,0.262,0.952,0.393,1.546,0.393c0.642,0,1.149-0.143,1.519-0.43
		C76.741,62.2,76.926,61.856,76.926,61.456z"/>
	<path fill="#FFFFFF" d="M81.619,53.436v2.053h1.764v0.726h-1.764v5.225c0,0.524,0.095,0.896,0.285,1.116
		c0.19,0.22,0.444,0.33,0.76,0.33c0.109,0,0.214-0.006,0.315-0.019c0.101-0.012,0.221-0.034,0.359-0.063l0.133,0.66
		c-0.119,0.059-0.266,0.107-0.441,0.145c-0.175,0.037-0.35,0.056-0.522,0.056c-0.563,0-1.002-0.178-1.316-0.534
		c-0.314-0.356-0.471-0.919-0.471-1.69v-5.225h-1.386v-0.726h1.386v-2.053H81.619z"/>
	<path fill="#FFFFFF" d="M86.58,63.509h-1.015v-1.215h1.015V63.509z"/>
	<path fill="#FFFFFF" d="M99.687,58.906h-4.351v4.603h-1.801V52.717h6.908v1.445h-5.107v3.298h4.351V58.906z"/>
	<path fill="#FFFFFF" d="M106.715,63.509c-0.064-0.202-0.117-0.4-0.159-0.593c-0.042-0.193-0.07-0.385-0.085-0.578
		c-0.242,0.376-0.566,0.69-0.971,0.945c-0.405,0.254-0.857,0.382-1.357,0.382c-0.835,0-1.476-0.215-1.923-0.645
		c-0.447-0.43-0.671-1.02-0.671-1.771c0-0.776,0.306-1.38,0.919-1.812c0.613-0.433,1.475-0.649,2.587-0.649h1.401v-0.704
		c0-0.42-0.122-0.748-0.367-0.986c-0.244-0.237-0.599-0.356-1.064-0.356c-0.41,0-0.736,0.098-0.978,0.293
		c-0.242,0.195-0.363,0.448-0.363,0.76l-1.734,0.007l-0.007-0.045c-0.035-0.633,0.248-1.193,0.849-1.682
		c0.6-0.489,1.382-0.734,2.346-0.734c0.934,0,1.687,0.237,2.261,0.712c0.573,0.475,0.86,1.156,0.86,2.046v3.565
		c0,0.331,0.022,0.648,0.067,0.952c0.044,0.304,0.116,0.602,0.215,0.893H106.715z M104.514,62.22c0.45,0,0.856-0.114,1.219-0.341
		c0.363-0.227,0.604-0.487,0.723-0.778v-1.186h-1.431c-0.524,0-0.934,0.13-1.23,0.389c-0.297,0.259-0.445,0.565-0.445,0.916
		c0,0.306,0.1,0.55,0.3,0.73C103.85,62.129,104.138,62.22,104.514,62.22z"/>
	<path fill="#FFFFFF" d="M115.026,61.315c0-0.277-0.117-0.505-0.352-0.686c-0.235-0.18-0.678-0.342-1.331-0.485
		c-0.944-0.193-1.665-0.477-2.164-0.852c-0.499-0.375-0.749-0.879-0.749-1.512c0-0.672,0.284-1.246,0.852-1.723
		c0.568-0.477,1.317-0.715,2.246-0.715c0.959,0,1.731,0.246,2.316,0.738c0.585,0.492,0.866,1.083,0.841,1.775l-0.015,0.044h-1.727
		c0-0.326-0.128-0.609-0.385-0.849c-0.257-0.24-0.6-0.36-1.03-0.36c-0.435,0-0.766,0.099-0.993,0.297
		c-0.227,0.198-0.341,0.44-0.341,0.726c0,0.272,0.106,0.489,0.319,0.652c0.213,0.163,0.65,0.309,1.312,0.437
		c0.983,0.197,1.725,0.488,2.223,0.871c0.499,0.383,0.749,0.896,0.749,1.538c0,0.721-0.298,1.311-0.893,1.768
		c-0.595,0.457-1.38,0.686-2.353,0.686c-1.043,0-1.865-0.267-2.468-0.801c-0.603-0.534-0.889-1.147-0.86-1.838l0.015-0.045h1.675
		c0.02,0.464,0.188,0.803,0.504,1.016c0.316,0.212,0.702,0.319,1.156,0.319c0.46,0,0.817-0.091,1.071-0.274
		C114.899,61.859,115.026,61.617,115.026,61.315z"/>
	<path fill="#FFFFFF" d="M121.097,53.54v1.949h1.438v1.334h-1.438v4.432c0,0.331,0.072,0.567,0.215,0.708
		c0.143,0.141,0.333,0.211,0.571,0.211c0.099,0,0.195-0.008,0.289-0.026c0.094-0.017,0.183-0.041,0.267-0.07l0.193,1.319
		c-0.153,0.084-0.335,0.15-0.545,0.197c-0.21,0.047-0.429,0.07-0.656,0.07c-0.662,0-1.182-0.194-1.56-0.582
		c-0.378-0.388-0.567-0.997-0.567-1.827v-4.432h-1.223v-1.334h1.223V53.54H121.097z"/>
	<path fill="#FFFFFF" d="M126.347,63.509h-1.794v-1.727h1.794V63.509z"/>
</g>
</svg>
