<?xml version="1.0" encoding="utf-8"?>
<!-- Generator: Adobe Illustrator 16.0.0, SVG Export Plug-In . SVG Version: 6.00 Build 0)  -->
<!DOCTYPE svg PUBLIC "-//W3C//DTD SVG 1.1//EN" "http://www.w3.org/Graphics/SVG/1.1/DTD/svg11.dtd">
<svg version="1.1" id="Layer_1" xmlns="http://www.w3.org/2000/svg" xmlns:xlink="http://www.w3.org/1999/xlink" x="0px" y="0px"
	 width="55.91px" height="55.908px" viewBox="0 0 55.91 55.908" enable-background="new 0 0 55.91 55.908" xml:space="preserve">
<path fill="#FFFFFF" d="M42.776,20.352c0.014,0.33,0.021,0.66,0.021,0.99c0,10.105-7.691,21.756-21.755,21.756
	c-4.321,0-8.341-1.266-11.725-3.434c0.599,0.07,1.206,0.107,1.823,0.107c3.585,0,6.882-1.223,9.497-3.273
	c-3.346-0.064-6.169-2.273-7.142-5.312c0.466,0.09,0.946,0.139,1.438,0.139c0.697,0,1.374-0.096,2.015-0.268
	c-3.497-0.703-6.133-3.795-6.133-7.5v-0.096c1.031,0.572,2.21,0.918,3.462,0.957c-2.051-1.369-3.399-3.713-3.399-6.365
	c0-1.4,0.377-2.713,1.035-3.846c3.771,4.629,9.405,7.674,15.761,7.99c-0.13-0.559-0.198-1.141-0.198-1.742
	c0-4.223,3.424-7.646,7.647-7.646c2.198,0,4.187,0.93,5.583,2.416c1.742-0.342,3.379-0.98,4.854-1.857
	c-0.57,1.787-1.784,3.285-3.363,4.23c1.547-0.184,3.021-0.594,4.393-1.203C45.563,17.928,44.268,19.275,42.776,20.352 M0.001,55.908
	h55.908V0H0.001V55.908z"/>
</svg>
